<svg xmlns="http://www.w3.org/2000/svg" xmlns:xlink="http://www.w3.org/1999/xlink" width="179.424" height="172.906" viewBox="0 0 179.424 172.906">
  <defs>
    <clipPath id="clip-path">
      <rect id="사각형_4707" data-name="사각형 4707" width="176.486" height="169.852" fill="none"/>
    </clipPath>
    <clipPath id="clip-path-2">
      <path id="패스_5807" data-name="패스 5807" d="M68.423.5C32.6.5,3.555,38.358,3.555,85.059S32.6,169.617,68.423,169.617H93.279c35.826,0,64.872-37.859,64.872-84.558S129.1.5,93.279.5Z" transform="translate(-3.555 -0.5)" fill="none"/>
    </clipPath>
  </defs>
  <g id="그룹_6479" data-name="그룹 6479" transform="matrix(1, -0.017, 0.017, 1, 0, 3.08)">
    <g id="그룹_6474" data-name="그룹 6474">
      <g id="그룹_6473" data-name="그룹 6473" clip-path="url(#clip-path)">
        <path id="패스_5804" data-name="패스 5804" d="M68.124,169.617c-35.66,0-64.571-37.859-64.571-84.558S32.464.5,68.124.5H92.866c35.662,0,64.575,37.859,64.575,84.56s-28.914,84.558-64.575,84.558Z" transform="translate(-0.942 -0.133)" fill="#fff"/>
        <path id="패스_5805" data-name="패스 5805" d="M68.124,169.617c-35.66,0-64.571-37.859-64.571-84.558S32.464.5,68.124.5H92.866c35.662,0,64.575,37.859,64.575,84.56s-28.914,84.558-64.575,84.558Z" transform="translate(-0.942 -0.133)" fill="none" stroke="#09c" stroke-linecap="round" stroke-linejoin="round" stroke-width="1"/>
        <path id="패스_5806" data-name="패스 5806" d="M68.423,169.617c-35.825,0-64.868-37.859-64.868-84.558S32.6.5,68.423.5H93.279c35.826,0,64.872,37.859,64.872,84.56S129.1,169.617,93.279,169.617Z" transform="translate(-0.942 -0.133)" fill="#fff"/>
      </g>
    </g>
    <g id="그룹_6476" data-name="그룹 6476" transform="translate(2.613 0.367)">
      <g id="그룹_6475" data-name="그룹 6475" clip-path="url(#clip-path-2)">
        <rect id="사각형_4708" data-name="사각형 4708" width="56.999" height="3.473" transform="translate(70.936 161.461)" fill="#fff"/>
        <rect id="사각형_4709" data-name="사각형 4709" width="56.999" height="3.473" transform="translate(70.936 161.461)" fill="none" stroke="#09c" stroke-linecap="round" stroke-linejoin="round" stroke-width="1"/>
        <rect id="사각형_4710" data-name="사각형 4710" width="56.999" height="3.474" transform="translate(84.579 152.629)" fill="#fff"/>
        <rect id="사각형_4711" data-name="사각형 4711" width="56.999" height="3.474" transform="translate(84.579 152.629)" fill="none" stroke="#09c" stroke-linecap="round" stroke-linejoin="round" stroke-width="1"/>
        <rect id="사각형_4712" data-name="사각형 4712" width="56.999" height="3.473" transform="translate(98.228 143.798)" fill="#fff"/>
        <rect id="사각형_4713" data-name="사각형 4713" width="56.999" height="3.473" transform="translate(98.228 143.798)" fill="none" stroke="#09c" stroke-linecap="round" stroke-linejoin="round" stroke-width="1"/>
        <rect id="사각형_4714" data-name="사각형 4714" width="56.999" height="3.472" transform="translate(111.874 134.967)" fill="#fff"/>
        <rect id="사각형_4715" data-name="사각형 4715" width="56.999" height="3.472" transform="translate(111.874 134.967)" fill="none" stroke="#09c" stroke-linecap="round" stroke-linejoin="round" stroke-width="1"/>
        <rect id="사각형_4716" data-name="사각형 4716" width="56.999" height="3.474" transform="translate(116.507 126.134)" fill="#fff"/>
        <rect id="사각형_4717" data-name="사각형 4717" width="56.999" height="3.474" transform="translate(116.507 126.134)" fill="none" stroke="#09c" stroke-linecap="round" stroke-linejoin="round" stroke-width="1"/>
        <rect id="사각형_4718" data-name="사각형 4718" width="56.999" height="3.474" transform="translate(116.507 117.119)" fill="#fff"/>
        <rect id="사각형_4719" data-name="사각형 4719" width="56.999" height="3.474" transform="translate(116.507 117.119)" fill="none" stroke="#09c" stroke-linecap="round" stroke-linejoin="round" stroke-width="1"/>
        <rect id="사각형_4720" data-name="사각형 4720" width="56.999" height="3.471" transform="translate(116.507 108.106)" fill="#fff"/>
        <rect id="사각형_4721" data-name="사각형 4721" width="56.999" height="3.471" transform="translate(116.507 108.106)" fill="none" stroke="#09c" stroke-linecap="round" stroke-linejoin="round" stroke-width="1"/>
        <rect id="사각형_4722" data-name="사각형 4722" width="56.999" height="3.474" transform="translate(116.507 99.09)" fill="#fff"/>
        <rect id="사각형_4723" data-name="사각형 4723" width="56.999" height="3.474" transform="translate(116.507 99.09)" fill="none" stroke="#09c" stroke-linecap="round" stroke-linejoin="round" stroke-width="1"/>
        <rect id="사각형_4724" data-name="사각형 4724" width="56.999" height="3.474" transform="translate(116.507 90.077)" fill="#fff"/>
        <rect id="사각형_4725" data-name="사각형 4725" width="56.999" height="3.474" transform="translate(116.507 90.077)" fill="none" stroke="#09c" stroke-linecap="round" stroke-linejoin="round" stroke-width="1"/>
        <rect id="사각형_4726" data-name="사각형 4726" width="56.999" height="3.472" transform="translate(116.507 81.063)" fill="#fff"/>
        <rect id="사각형_4727" data-name="사각형 4727" width="56.999" height="3.472" transform="translate(116.507 81.063)" fill="none" stroke="#09c" stroke-linecap="round" stroke-linejoin="round" stroke-width="1"/>
        <rect id="사각형_4728" data-name="사각형 4728" width="56.999" height="3.472" transform="translate(116.507 72.048)" fill="#fff"/>
        <rect id="사각형_4729" data-name="사각형 4729" width="56.999" height="3.472" transform="translate(116.507 72.048)" fill="none" stroke="#09c" stroke-linecap="round" stroke-linejoin="round" stroke-width="1"/>
        <rect id="사각형_4730" data-name="사각형 4730" width="56.999" height="3.474" transform="translate(116.507 63.033)" fill="#fff"/>
        <rect id="사각형_4731" data-name="사각형 4731" width="56.999" height="3.474" transform="translate(116.507 63.033)" fill="none" stroke="#09c" stroke-linecap="round" stroke-linejoin="round" stroke-width="1"/>
        <rect id="사각형_4732" data-name="사각형 4732" width="56.999" height="3.472" transform="translate(116.507 54.019)" fill="#fff"/>
        <rect id="사각형_4733" data-name="사각형 4733" width="56.999" height="3.472" transform="translate(116.507 54.019)" fill="none" stroke="#09c" stroke-linecap="round" stroke-linejoin="round" stroke-width="1"/>
        <rect id="사각형_4734" data-name="사각형 4734" width="56.999" height="3.473" transform="translate(116.507 45.003)" fill="#fff"/>
        <rect id="사각형_4735" data-name="사각형 4735" width="56.999" height="3.473" transform="translate(116.507 45.003)" fill="none" stroke="#09c" stroke-linecap="round" stroke-linejoin="round" stroke-width="1"/>
        <rect id="사각형_4736" data-name="사각형 4736" width="56.999" height="3.473" transform="translate(116.507 35.989)" fill="#fff"/>
        <rect id="사각형_4737" data-name="사각형 4737" width="56.999" height="3.473" transform="translate(116.507 35.989)" fill="none" stroke="#09c" stroke-linecap="round" stroke-linejoin="round" stroke-width="1"/>
        <rect id="사각형_4738" data-name="사각형 4738" width="57.001" height="3.474" transform="translate(108.525 26.974)" fill="#fff"/>
        <rect id="사각형_4739" data-name="사각형 4739" width="57.001" height="3.474" transform="translate(108.525 26.974)" fill="none" stroke="#09c" stroke-linecap="round" stroke-linejoin="round" stroke-width="1"/>
        <rect id="사각형_4740" data-name="사각형 4740" width="57.001" height="3.473" transform="translate(97.711 19.063)" fill="#fff"/>
        <rect id="사각형_4741" data-name="사각형 4741" width="57.001" height="3.473" transform="translate(97.711 19.063)" fill="none" stroke="#09c" stroke-linecap="round" stroke-linejoin="round" stroke-width="1"/>
        <rect id="사각형_4742" data-name="사각형 4742" width="56.998" height="3.472" transform="translate(86.897 11.152)" fill="#fff"/>
        <rect id="사각형_4743" data-name="사각형 4743" width="56.998" height="3.472" transform="translate(86.897 11.152)" fill="none" stroke="#09c" stroke-linecap="round" stroke-linejoin="round" stroke-width="1"/>
        <rect id="사각형_4744" data-name="사각형 4744" width="57.001" height="3.472" transform="translate(76.081 3.241)" fill="#fff"/>
        <rect id="사각형_4745" data-name="사각형 4745" width="57.001" height="3.472" transform="translate(76.081 3.241)" fill="none" stroke="#09c" stroke-linecap="round" stroke-linejoin="round" stroke-width="1"/>
      </g>
    </g>
    <g id="그룹_6478" data-name="그룹 6478">
      <g id="그룹_6477" data-name="그룹 6477" clip-path="url(#clip-path)">
        <path id="패스_5808" data-name="패스 5808" d="M68.423,169.617c-35.825,0-64.868-37.859-64.868-84.558S32.6.5,68.423.5H93.279c35.826,0,64.872,37.859,64.872,84.56S129.1,169.617,93.279,169.617Z" transform="translate(-0.942 -0.133)" fill="none" stroke="#09c" stroke-linecap="round" stroke-linejoin="round" stroke-width="1"/>
        <path id="패스_5809" data-name="패스 5809" d="M73.265.5c40.188,0,72.768,37.859,72.768,84.56s-32.581,84.557-72.768,84.557S.5,131.758.5,85.059,33.08.5,73.265.5" transform="translate(-0.133 -0.132)" fill="#fff"/>
        <path id="패스_5810" data-name="패스 5810" d="M73.265.5c40.188,0,72.768,37.859,72.768,84.56s-32.581,84.557-72.768,84.557S.5,131.758.5,85.059,33.08.5,73.265.5Z" transform="translate(-0.133 -0.132)" fill="none" stroke="#09c" stroke-linecap="round" stroke-linejoin="round" stroke-width="1"/>
        <path id="패스_5811" data-name="패스 5811" d="M75.776,18.527c34.068,0,61.7,31.927,61.7,71.31s-27.628,71.309-61.7,71.309-61.7-31.926-61.7-71.309,27.625-71.31,61.7-71.31" transform="translate(-3.731 -4.91)" fill="#fff"/>
        <path id="패스_5812" data-name="패스 5812" d="M75.776,18.527c34.068,0,61.7,31.927,61.7,71.31s-27.628,71.309-61.7,71.309-61.7-31.926-61.7-71.309S41.7,18.527,75.776,18.527Z" transform="translate(-3.731 -4.91)" fill="none" stroke="#09c" stroke-linecap="round" stroke-linejoin="round" stroke-width="1"/>
        <path id="패스_5813" data-name="패스 5813" d="M20.145,89.837c0-38.137,24.531-69.279,55.384-71.214-1.007-.064-2.025-.1-3.045-.1-32.269,0-58.432,31.926-58.432,71.31s26.163,71.309,58.432,71.309c1.02,0,2.038-.033,3.045-.1-30.853-1.937-55.384-33.078-55.384-71.213" transform="translate(-3.724 -4.91)" fill="#fff"/>
        <path id="패스_5814" data-name="패스 5814" d="M20.145,89.837c0-38.137,24.531-69.279,55.384-71.214-1.007-.064-2.025-.1-3.045-.1-32.269,0-58.432,31.926-58.432,71.31s26.163,71.309,58.432,71.309c1.02,0,2.038-.033,3.045-.1C44.676,159.113,20.145,127.972,20.145,89.837Z" transform="translate(-3.724 -4.91)" fill="none" stroke="#09c" stroke-linecap="round" stroke-linejoin="round" stroke-width="1"/>
        <path id="패스_5815" data-name="패스 5815" d="M118.4,103.152a21.3,21.3,0,0,0-4.908-7.034,28.505,28.505,0,0,0-6.992-4.824,44.287,44.287,0,0,0-8.1-3.04l-2.391-.686.13-23.79a13.256,13.256,0,0,1,5.864,2.671,11.8,11.8,0,0,1,4.257,8.493H119.2a24.647,24.647,0,0,0-3.515-12.754,23.749,23.749,0,0,0-9.367-8.7,27.519,27.519,0,0,0-10.105-2.952l.054-9.678H88.586l-.054,9.7a28.769,28.769,0,0,0-10.018,2.926,23.769,23.769,0,0,0-13.3,21.994q0,9.154,5.31,14.665T85,98.368l3.267.967L88.13,124.5a17.4,17.4,0,0,1-3.764-1.125,12.777,12.777,0,0,1-5.489-4.411,14.088,14.088,0,0,1-2.39-7.408H63.264a29.332,29.332,0,0,0,3.856,14.4,23.056,23.056,0,0,0,9.93,8.989,31.5,31.5,0,0,0,11.012,2.9l-.054,9.542h7.681l.049-9.507a30.849,30.849,0,0,0,11.525-3.036,22.779,22.779,0,0,0,9.616-8.865,25.538,25.538,0,0,0,3.335-13.172,23.8,23.8,0,0,0-1.813-9.653M86.922,84.718a19.121,19.121,0,0,1-4.1-2.267,9.974,9.974,0,0,1-2.914-3.308,9.5,9.5,0,0,1-1.072-4.617,10.626,10.626,0,0,1,1.634-5.7,10.958,10.958,0,0,1,4.6-3.954,13.658,13.658,0,0,1,3.393-1.1l-.118,21.5c-.475-.171-.949-.356-1.423-.549m17.932,34.352a12.464,12.464,0,0,1-5.2,4.244,16.163,16.163,0,0,1-3.844,1.191l.126-22.846a38.944,38.944,0,0,1,4.479,1.85,12.94,12.94,0,0,1,4.655,3.66,9.035,9.035,0,0,1,1.7,5.514,11.192,11.192,0,0,1-1.921,6.388" transform="translate(-16.766 -10.828)" fill="#fff"/>
        <path id="패스_5816" data-name="패스 5816" d="M118.4,103.152a21.3,21.3,0,0,0-4.908-7.034,28.505,28.505,0,0,0-6.992-4.824,44.287,44.287,0,0,0-8.1-3.04l-2.391-.686.13-23.79a13.256,13.256,0,0,1,5.864,2.671,11.8,11.8,0,0,1,4.257,8.493H119.2a24.647,24.647,0,0,0-3.515-12.754,23.749,23.749,0,0,0-9.367-8.7,27.519,27.519,0,0,0-10.105-2.952l.054-9.678H88.586l-.054,9.7a28.769,28.769,0,0,0-10.018,2.926,23.769,23.769,0,0,0-13.3,21.994q0,9.154,5.31,14.665T85,98.368l3.267.967L88.13,124.5a17.4,17.4,0,0,1-3.764-1.125,12.777,12.777,0,0,1-5.489-4.411,14.088,14.088,0,0,1-2.39-7.408H63.264a29.332,29.332,0,0,0,3.856,14.4,23.056,23.056,0,0,0,9.93,8.989,31.5,31.5,0,0,0,11.012,2.9l-.054,9.542h7.681l.049-9.507a30.849,30.849,0,0,0,11.525-3.036,22.779,22.779,0,0,0,9.616-8.865,25.538,25.538,0,0,0,3.335-13.172A23.8,23.8,0,0,0,118.4,103.152ZM86.922,84.718a19.121,19.121,0,0,1-4.1-2.267,9.974,9.974,0,0,1-2.914-3.308,9.5,9.5,0,0,1-1.072-4.617,10.626,10.626,0,0,1,1.634-5.7,10.958,10.958,0,0,1,4.6-3.954,13.658,13.658,0,0,1,3.393-1.1l-.118,21.5C87.87,85.1,87.4,84.911,86.922,84.718Zm17.932,34.352a12.464,12.464,0,0,1-5.2,4.244,16.163,16.163,0,0,1-3.844,1.191l.126-22.846a38.944,38.944,0,0,1,4.479,1.85,12.94,12.94,0,0,1,4.655,3.66,9.035,9.035,0,0,1,1.7,5.514A11.192,11.192,0,0,1,104.853,119.07Z" transform="translate(-16.766 -10.828)" fill="none" stroke="#09c" stroke-linecap="round" stroke-linejoin="round" stroke-width="1"/>
        <path id="패스_5817" data-name="패스 5817" d="M113.4,103.152a21.3,21.3,0,0,0-4.908-7.034,28.505,28.505,0,0,0-6.992-4.824,44.287,44.287,0,0,0-8.1-3.04l-2.391-.686.13-23.79A13.256,13.256,0,0,1,97,66.45a11.8,11.8,0,0,1,4.257,8.493H114.2a24.647,24.647,0,0,0-3.515-12.754,23.749,23.749,0,0,0-9.367-8.7,27.519,27.519,0,0,0-10.105-2.952l.054-9.678H83.582l-.054,9.7A28.769,28.769,0,0,0,73.51,53.489a23.769,23.769,0,0,0-13.3,21.994q0,9.154,5.31,14.665T80,98.368l3.267.967L83.126,124.5a17.4,17.4,0,0,1-3.764-1.125,12.777,12.777,0,0,1-5.489-4.411,14.088,14.088,0,0,1-2.39-7.408H58.26a29.332,29.332,0,0,0,3.856,14.4,23.056,23.056,0,0,0,9.93,8.989,31.5,31.5,0,0,0,11.012,2.9L83,147.385h7.681l.049-9.507a30.849,30.849,0,0,0,11.525-3.036,22.78,22.78,0,0,0,9.616-8.865,25.538,25.538,0,0,0,3.335-13.172,23.8,23.8,0,0,0-1.813-9.653M81.918,84.718a19.121,19.121,0,0,1-4.1-2.267,9.974,9.974,0,0,1-2.914-3.308,9.5,9.5,0,0,1-1.072-4.617,10.626,10.626,0,0,1,1.634-5.7,10.958,10.958,0,0,1,4.6-3.954,13.658,13.658,0,0,1,3.393-1.1l-.118,21.5c-.475-.171-.949-.356-1.423-.549M99.849,119.07a12.466,12.466,0,0,1-5.2,4.244,16.18,16.18,0,0,1-3.845,1.191l.126-22.846a38.944,38.944,0,0,1,4.479,1.85,12.94,12.94,0,0,1,4.655,3.66,9.035,9.035,0,0,1,1.7,5.514,11.192,11.192,0,0,1-1.921,6.388" transform="translate(-15.44 -10.828)" fill="#fff"/>
        <path id="패스_5818" data-name="패스 5818" d="M113.4,103.152a21.3,21.3,0,0,0-4.908-7.034,28.505,28.505,0,0,0-6.992-4.824,44.287,44.287,0,0,0-8.1-3.04l-2.391-.686.13-23.79A13.256,13.256,0,0,1,97,66.45a11.8,11.8,0,0,1,4.257,8.493H114.2a24.647,24.647,0,0,0-3.515-12.754,23.749,23.749,0,0,0-9.367-8.7,27.519,27.519,0,0,0-10.105-2.952l.054-9.678H83.582l-.054,9.7A28.769,28.769,0,0,0,73.51,53.489a23.769,23.769,0,0,0-13.3,21.994q0,9.154,5.31,14.665T80,98.368l3.267.967L83.126,124.5a17.4,17.4,0,0,1-3.764-1.125,12.777,12.777,0,0,1-5.489-4.411,14.088,14.088,0,0,1-2.39-7.408H58.26a29.332,29.332,0,0,0,3.856,14.4,23.056,23.056,0,0,0,9.93,8.989,31.5,31.5,0,0,0,11.012,2.9L83,147.385h7.681l.049-9.507a30.849,30.849,0,0,0,11.525-3.036,22.78,22.78,0,0,0,9.616-8.865,25.538,25.538,0,0,0,3.335-13.172A23.8,23.8,0,0,0,113.4,103.152ZM81.918,84.718a19.121,19.121,0,0,1-4.1-2.267,9.974,9.974,0,0,1-2.914-3.308,9.5,9.5,0,0,1-1.072-4.617,10.626,10.626,0,0,1,1.634-5.7,10.958,10.958,0,0,1,4.6-3.954,13.658,13.658,0,0,1,3.393-1.1l-.118,21.5C82.866,85.1,82.392,84.911,81.918,84.718ZM99.849,119.07a12.466,12.466,0,0,1-5.2,4.244,16.18,16.18,0,0,1-3.845,1.191l.126-22.846a38.944,38.944,0,0,1,4.479,1.85,12.94,12.94,0,0,1,4.655,3.66,9.035,9.035,0,0,1,1.7,5.514A11.192,11.192,0,0,1,99.849,119.07Z" transform="translate(-15.44 -10.828)" fill="none" stroke="#09c" stroke-linecap="round" stroke-linejoin="round" stroke-width="1"/>
      </g>
    </g>
  </g>
</svg>
