<svg id="그룹_6660" data-name="그룹 6660" xmlns="http://www.w3.org/2000/svg" width="24" height="24" viewBox="0 0 24 24">
  <path id="패스_9289" data-name="패스 9289" d="M0,0H24V24H0Z" fill="none"/>
  <circle id="타원_527" data-name="타원 527" cx="1" cy="1" r="1" transform="translate(8 11)" fill="none" stroke="#00bfff" stroke-linecap="round" stroke-linejoin="round" stroke-width="1"/>
  <circle id="타원_528" data-name="타원 528" cx="1" cy="1" r="1" transform="translate(14 11)" fill="none" stroke="#00bfff" stroke-linecap="round" stroke-linejoin="round" stroke-width="1"/>
  <path id="패스_9290" data-name="패스 9290" d="M7.5,7.5a13.875,13.875,0,0,1,9,0" fill="none" stroke="#00bfff" stroke-linecap="round" stroke-linejoin="round" stroke-width="1"/>
  <path id="패스_9291" data-name="패스 9291" d="M7,16.5a17.042,17.042,0,0,0,10,0" fill="none" stroke="#00bfff" stroke-linecap="round" stroke-linejoin="round" stroke-width="1"/>
  <path id="패스_9292" data-name="패스 9292" d="M15.5,17c0,1,1.5,3,2,3,1.5,0,2.833-1.667,3.5-3,.667-1.667.5-5.833-1.5-11.5A9.237,9.237,0,0,0,15,4L14,6.5" fill="none" stroke="#00bfff" stroke-linecap="round" stroke-linejoin="round" stroke-width="1"/>
  <path id="패스_9293" data-name="패스 9293" d="M8.5,17c0,1-1.356,3-1.832,3-1.429,0-2.7-1.667-3.333-3C2.7,15.333,2.859,11.167,4.763,5.5A8.274,8.274,0,0,1,9,4l1,2.5" fill="none" stroke="#00bfff" stroke-linecap="round" stroke-linejoin="round" stroke-width="1"/>
</svg>
