<svg id="그룹_2261" data-name="그룹 2261" xmlns="http://www.w3.org/2000/svg" width="23.683" height="23.683" viewBox="0 0 23.683 23.683">
  <path id="패스_2066" data-name="패스 2066" d="M0,0H23.683V23.683H0Z" fill="none"/>
  <path id="패스_2067" data-name="패스 2067" d="M21.736,4.009a17.706,17.706,0,0,1-2.96.977,3.739,3.739,0,0,0-4.322-.727,3.881,3.881,0,0,0-2.585,3.688v.987A9.268,9.268,0,0,1,3.974,4.985S-.153,12.32,7.921,15.84A9.726,9.726,0,0,1,2,17.814a13.247,13.247,0,0,0,9.9,1.5,10.859,10.859,0,0,0,7.55-7.64,13.657,13.657,0,0,0,.49-3.7c0-.246,1.49-2.735,1.794-3.96Z" transform="translate(-0.026 -0.052)" fill="none" stroke="#00bfff" stroke-linecap="round" stroke-linejoin="round" stroke-width="1.2"/>
</svg>
