<svg id="그룹_6628" data-name="그룹 6628" xmlns="http://www.w3.org/2000/svg" xmlns:xlink="http://www.w3.org/1999/xlink" width="514.584" height="306.073" viewBox="0 0 514.584 306.073">
  <defs>
    <clipPath id="clip-path">
      <rect id="사각형_6649" data-name="사각형 6649" width="514.584" height="306.073" fill="none"/>
    </clipPath>
    <clipPath id="clip-path-4">
      <path id="패스_9235" data-name="패스 9235" d="M426.037,251.225v12.493c0,18.007,26.63,32.607,59.479,32.607S545,281.725,545,263.718V251.225c0-18.007-26.63-32.6-59.481-32.6s-59.479,14.6-59.479,32.6" transform="translate(-426.037 -218.62)" fill="none"/>
    </clipPath>
    <clipPath id="clip-path-6">
      <path id="패스_9262" data-name="패스 9262" d="M435.254,215.257V227.75c0,18.007,26.631,32.607,59.479,32.607s59.481-14.6,59.481-32.607V215.257c0-18.006-26.63-32.605-59.481-32.605s-59.479,14.6-59.479,32.605" transform="translate(-435.254 -182.652)" fill="none"/>
    </clipPath>
  </defs>
  <path id="패스_9226" data-name="패스 9226" d="M541.2,453.949l-.07,13.712L798.256,320.836v-12.4Z" transform="translate(-283.91 -161.825)" fill="#fff"/>
  <g id="그룹_6615" data-name="그룹 6615">
    <g id="그룹_6614" data-name="그룹 6614" clip-path="url(#clip-path)">
      <path id="패스_9227" data-name="패스 9227" d="M541.2,453.949l-.07,13.712L798.256,320.837v-12.4Z" transform="translate(-283.91 -161.826)" fill="none" stroke="#09c" stroke-linecap="round" stroke-linejoin="round" stroke-width="1"/>
    </g>
  </g>
  <path id="패스_9228" data-name="패스 9228" d="M.5,320.077,257.485,467.262l.069-13.231L.5,307.679Z" transform="translate(-0.263 -161.427)" fill="#7bc9db"/>
  <g id="그룹_6617" data-name="그룹 6617">
    <g id="그룹_6616" data-name="그룹 6616" clip-path="url(#clip-path)">
      <path id="패스_9229" data-name="패스 9229" d="M257.554,454.031l-.07,13.232L.5,320.076v-12.4Z" transform="translate(-0.262 -161.427)" fill="none" stroke="#09c" stroke-linecap="round" stroke-linejoin="round" stroke-width="1"/>
    </g>
  </g>
  <path id="패스_9230" data-name="패스 9230" d="M.5,146.01,257.554,292.53,514.609,146.852,257.554.5Z" transform="translate(-0.263 -0.262)" fill="#fff"/>
  <g id="그룹_6619" data-name="그룹 6619">
    <g id="그룹_6618" data-name="그룹 6618" clip-path="url(#clip-path)">
      <path id="패스_9231" data-name="패스 9231" d="M.5,146.01,257.554.5,514.609,146.852,257.554,292.529Z" transform="translate(-0.262 -0.263)" fill="none" stroke="#09c" stroke-linecap="round" stroke-linejoin="round" stroke-width="1"/>
      <path id="패스_9232" data-name="패스 9232" d="M426.036,251.224c0-18.006,26.63-32.605,59.479-32.605S545,233.218,545,251.224v12.493c0,18.007-26.63,32.607-59.481,32.607s-59.479-14.6-59.479-32.607Z" transform="translate(-223.524 -114.7)" fill="#fff"/>
      <path id="패스_9233" data-name="패스 9233" d="M426.036,251.224c0-18.006,26.63-32.605,59.479-32.605S545,233.218,545,251.224v12.493c0,18.007-26.63,32.607-59.481,32.607s-59.479-14.6-59.479-32.607Z" transform="translate(-223.524 -114.7)" fill="none" stroke="#09c" stroke-linecap="round" stroke-linejoin="round" stroke-width="1"/>
      <path id="패스_9234" data-name="패스 9234" d="M426.036,251.224c0-18.006,26.63-32.605,59.479-32.605S545,233.218,545,251.224v12.493c0,18.007-26.63,32.607-59.481,32.607s-59.479-14.6-59.479-32.607Z" transform="translate(-223.524 -114.7)" fill="#fff"/>
    </g>
  </g>
  <g id="그룹_6621" data-name="그룹 6621" transform="translate(202.513 103.919)">
    <g id="그룹_6620" data-name="그룹 6620" clip-path="url(#clip-path-4)">
      <rect id="사각형_6652" data-name="사각형 6652" width="2.443" height="28.65" transform="translate(2.942 35.654)" fill="#fff"/>
      <rect id="사각형_6653" data-name="사각형 6653" width="2.443" height="28.65" transform="translate(2.942 35.654)" fill="none" stroke="#09c" stroke-linecap="round" stroke-linejoin="round" stroke-width="1"/>
      <rect id="사각형_6654" data-name="사각형 6654" width="2.444" height="28.649" transform="translate(9.154 42.513)" fill="#fff"/>
      <rect id="사각형_6655" data-name="사각형 6655" width="2.444" height="28.649" transform="translate(9.154 42.513)" fill="none" stroke="#09c" stroke-linecap="round" stroke-linejoin="round" stroke-width="1"/>
      <rect id="사각형_6656" data-name="사각형 6656" width="2.443" height="28.649" transform="translate(15.367 49.373)" fill="#fff"/>
      <rect id="사각형_6657" data-name="사각형 6657" width="2.443" height="28.649" transform="translate(15.367 49.373)" fill="none" stroke="#09c" stroke-linecap="round" stroke-linejoin="round" stroke-width="1"/>
      <rect id="사각형_6658" data-name="사각형 6658" width="2.443" height="28.65" transform="translate(21.58 56.231)" fill="#fff"/>
      <rect id="사각형_6659" data-name="사각형 6659" width="2.443" height="28.65" transform="translate(21.58 56.231)" fill="none" stroke="#09c" stroke-linecap="round" stroke-linejoin="round" stroke-width="1"/>
      <rect id="사각형_6660" data-name="사각형 6660" width="2.444" height="28.65" transform="translate(27.791 58.56)" fill="#fff"/>
      <rect id="사각형_6661" data-name="사각형 6661" width="2.444" height="28.65" transform="translate(27.791 58.56)" fill="none" stroke="#09c" stroke-linecap="round" stroke-linejoin="round" stroke-width="1"/>
      <rect id="사각형_6662" data-name="사각형 6662" width="2.443" height="28.65" transform="translate(34.133 58.56)" fill="#fff"/>
      <rect id="사각형_6663" data-name="사각형 6663" width="2.443" height="28.65" transform="translate(34.133 58.56)" fill="none" stroke="#09c" stroke-linecap="round" stroke-linejoin="round" stroke-width="1"/>
      <rect id="사각형_6664" data-name="사각형 6664" width="2.442" height="28.65" transform="translate(40.475 58.56)" fill="#fff"/>
      <rect id="사각형_6665" data-name="사각형 6665" width="2.442" height="28.65" transform="translate(40.475 58.56)" fill="none" stroke="#09c" stroke-linecap="round" stroke-linejoin="round" stroke-width="1"/>
      <rect id="사각형_6666" data-name="사각형 6666" width="2.444" height="28.65" transform="translate(46.814 58.56)" fill="#fff"/>
      <rect id="사각형_6667" data-name="사각형 6667" width="2.444" height="28.65" transform="translate(46.814 58.56)" fill="none" stroke="#09c" stroke-linecap="round" stroke-linejoin="round" stroke-width="1"/>
      <rect id="사각형_6668" data-name="사각형 6668" width="2.444" height="28.65" transform="translate(53.155 58.56)" fill="#fff"/>
      <rect id="사각형_6669" data-name="사각형 6669" width="2.444" height="28.65" transform="translate(53.155 58.56)" fill="none" stroke="#09c" stroke-linecap="round" stroke-linejoin="round" stroke-width="1"/>
      <rect id="사각형_6670" data-name="사각형 6670" width="2.442" height="28.65" transform="translate(59.497 58.56)" fill="#fff"/>
      <rect id="사각형_6671" data-name="사각형 6671" width="2.442" height="28.65" transform="translate(59.497 58.56)" fill="none" stroke="#09c" stroke-linecap="round" stroke-linejoin="round" stroke-width="1"/>
      <rect id="사각형_6672" data-name="사각형 6672" width="2.443" height="28.65" transform="translate(65.838 58.56)" fill="#fff"/>
      <rect id="사각형_6673" data-name="사각형 6673" width="2.443" height="28.65" transform="translate(65.838 58.56)" fill="none" stroke="#09c" stroke-linecap="round" stroke-linejoin="round" stroke-width="1"/>
      <rect id="사각형_6674" data-name="사각형 6674" width="2.443" height="28.65" transform="translate(72.179 58.56)" fill="#fff"/>
      <rect id="사각형_6675" data-name="사각형 6675" width="2.443" height="28.65" transform="translate(72.179 58.56)" fill="none" stroke="#09c" stroke-linecap="round" stroke-linejoin="round" stroke-width="1"/>
      <rect id="사각형_6676" data-name="사각형 6676" width="2.443" height="28.65" transform="translate(78.519 58.56)" fill="#fff"/>
      <rect id="사각형_6677" data-name="사각형 6677" width="2.443" height="28.65" transform="translate(78.519 58.56)" fill="none" stroke="#09c" stroke-linecap="round" stroke-linejoin="round" stroke-width="1"/>
      <rect id="사각형_6678" data-name="사각형 6678" width="2.443" height="28.65" transform="translate(84.861 58.56)" fill="#fff"/>
      <rect id="사각형_6679" data-name="사각형 6679" width="2.443" height="28.65" transform="translate(84.861 58.56)" fill="none" stroke="#09c" stroke-linecap="round" stroke-linejoin="round" stroke-width="1"/>
      <rect id="사각형_6680" data-name="사각형 6680" width="2.443" height="28.65" transform="translate(91.202 58.56)" fill="#fff"/>
      <rect id="사각형_6681" data-name="사각형 6681" width="2.443" height="28.65" transform="translate(91.202 58.56)" fill="none" stroke="#09c" stroke-linecap="round" stroke-linejoin="round" stroke-width="1"/>
      <rect id="사각형_6682" data-name="사각형 6682" width="2.444" height="28.65" transform="translate(97.542 54.549)" fill="#fff"/>
      <rect id="사각형_6683" data-name="사각형 6683" width="2.444" height="28.65" transform="translate(97.542 54.549)" fill="none" stroke="#09c" stroke-linecap="round" stroke-linejoin="round" stroke-width="1"/>
      <rect id="사각형_6684" data-name="사각형 6684" width="2.443" height="28.651" transform="translate(103.108 49.113)" fill="#fff"/>
      <rect id="사각형_6685" data-name="사각형 6685" width="2.443" height="28.651" transform="translate(103.108 49.113)" fill="none" stroke="#09c" stroke-linecap="round" stroke-linejoin="round" stroke-width="1"/>
      <rect id="사각형_6686" data-name="사각형 6686" width="2.443" height="28.649" transform="translate(108.673 43.677)" fill="#fff"/>
      <rect id="사각형_6687" data-name="사각형 6687" width="2.443" height="28.649" transform="translate(108.673 43.677)" fill="none" stroke="#09c" stroke-linecap="round" stroke-linejoin="round" stroke-width="1"/>
      <rect id="사각형_6688" data-name="사각형 6688" width="2.443" height="28.651" transform="translate(114.238 38.241)" fill="#fff"/>
      <rect id="사각형_6689" data-name="사각형 6689" width="2.443" height="28.651" transform="translate(114.238 38.241)" fill="none" stroke="#09c" stroke-linecap="round" stroke-linejoin="round" stroke-width="1"/>
    </g>
  </g>
  <g id="그룹_6623" data-name="그룹 6623">
    <g id="그룹_6622" data-name="그룹 6622" clip-path="url(#clip-path)">
      <path id="패스_9236" data-name="패스 9236" d="M426.036,251.224c0-18.006,26.63-32.605,59.479-32.605S545,233.218,545,251.224v12.493c0,18.007-26.63,32.607-59.481,32.607s-59.479-14.6-59.479-32.607Z" transform="translate(-223.524 -114.7)" fill="none" stroke="#09c" stroke-linecap="round" stroke-linejoin="round" stroke-width="1"/>
      <path id="패스_9237" data-name="패스 9237" d="M545,250.578c0,18.89-26.63,34.2-59.481,34.2s-59.479-15.314-59.479-34.2,26.63-34.2,59.479-34.2S545,231.69,545,250.578" transform="translate(-223.524 -113.524)" fill="#fff"/>
      <path id="패스_9238" data-name="패스 9238" d="M545,250.578c0,18.89-26.63,34.2-59.481,34.2s-59.479-15.314-59.479-34.2,26.63-34.2,59.479-34.2S545,231.69,545,250.578Z" transform="translate(-223.524 -113.524)" fill="none" stroke="#09c" stroke-linecap="round" stroke-linejoin="round" stroke-width="1"/>
      <path id="패스_9239" data-name="패스 9239" d="M545.963,253.69c0,15.166-22.458,27.465-50.161,27.465s-50.16-12.3-50.16-27.465,22.457-27.465,50.16-27.465,50.161,12.3,50.161,27.465" transform="translate(-233.81 -118.691)" fill="#fff"/>
      <path id="패스_9240" data-name="패스 9240" d="M545.963,253.69c0,15.166-22.458,27.465-50.161,27.465s-50.16-12.3-50.16-27.465,22.457-27.465,50.16-27.465S545.963,238.523,545.963,253.69Z" transform="translate(-233.81 -118.691)" fill="none" stroke="#09c" stroke-linecap="round" stroke-linejoin="round" stroke-width="1"/>
      <path id="패스_9241" data-name="패스 9241" d="M495.8,229.089c26.827,0,48.733,11.53,50.094,26.032.045-.473.067-.952.067-1.431,0-15.168-22.458-27.465-50.161-27.465s-50.16,12.3-50.16,27.465c0,.479.023.958.067,1.431,1.362-14.5,23.268-26.032,50.092-26.032" transform="translate(-233.81 -118.691)" fill="#fff"/>
      <path id="패스_9242" data-name="패스 9242" d="M495.8,229.089c26.827,0,48.733,11.53,50.094,26.032.045-.473.067-.952.067-1.431,0-15.168-22.458-27.465-50.161-27.465s-50.16,12.3-50.16,27.465c0,.479.023.958.067,1.431C447.071,240.619,468.977,229.089,495.8,229.089Z" transform="translate(-233.81 -118.691)" fill="none" stroke="#09c" stroke-linecap="round" stroke-linejoin="round" stroke-width="1"/>
      <path id="패스_9243" data-name="패스 9243" d="M497.308,254.263,512.4,281.054l27.462-4.862-2.616-16.709Z" transform="translate(-260.917 -133.401)" fill="#fff"/>
      <path id="패스_9244" data-name="패스 9244" d="M497.308,254.263,512.4,281.054l27.462-4.862-2.616-16.709Z" transform="translate(-260.917 -133.401)" fill="none" stroke="#09c" stroke-linecap="round" stroke-linejoin="round" stroke-width="1"/>
      <path id="패스_9245" data-name="패스 9245" d="M559.983,272.023l2.781,14.482-27.108,5.556,37.325,2.5Z" transform="translate(-281.037 -142.72)" fill="#fff"/>
      <path id="패스_9246" data-name="패스 9246" d="M559.983,272.023l2.781,14.482-27.108,5.556,37.325,2.5Z" transform="translate(-281.037 -142.72)" fill="none" stroke="#09c" stroke-linecap="round" stroke-linejoin="round" stroke-width="1"/>
      <path id="패스_9247" data-name="패스 9247" d="M529.062,301.932v-3.013l27.462-4.862v3.013Z" transform="translate(-277.577 -154.279)" fill="#fff"/>
      <path id="패스_9248" data-name="패스 9248" d="M529.062,301.932v-3.013l27.462-4.862v3.013Z" transform="translate(-277.577 -154.279)" fill="none" stroke="#09c" stroke-linecap="round" stroke-linejoin="round" stroke-width="1"/>
      <path id="패스_9249" data-name="패스 9249" d="M535.656,307.84v3.013l37.325,2.5v-3.013Z" transform="translate(-281.037 -161.511)" fill="#fff"/>
      <path id="패스_9250" data-name="패스 9250" d="M535.656,307.84v3.013l37.325,2.5v-3.013Z" transform="translate(-281.037 -161.511)" fill="none" stroke="#09c" stroke-linecap="round" stroke-linejoin="round" stroke-width="1"/>
      <path id="패스_9251" data-name="패스 9251" d="M497.308,247.923v3.013L512.4,277.727v-3.013Z" transform="translate(-260.917 -130.075)" fill="#fff"/>
      <path id="패스_9252" data-name="패스 9252" d="M497.308,247.923v3.013L512.4,277.727v-3.013Z" transform="translate(-260.917 -130.075)" fill="none" stroke="#09c" stroke-linecap="round" stroke-linejoin="round" stroke-width="1"/>
      <path id="패스_9253" data-name="패스 9253" d="M586.835,265.684V268.7l2.276,13.264.5-1.8Z" transform="translate(-307.888 -139.394)" fill="#fff"/>
      <path id="패스_9254" data-name="패스 9254" d="M586.835,265.684V268.7l2.276,13.264.5-1.8Z" transform="translate(-307.888 -139.394)" fill="none" stroke="#09c" stroke-linecap="round" stroke-linejoin="round" stroke-width="1"/>
      <path id="패스_9255" data-name="패스 9255" d="M497.308,247.923,512.4,274.714l27.462-4.862-2.616-16.709Z" transform="translate(-260.917 -130.075)" fill="#fff"/>
      <path id="패스_9256" data-name="패스 9256" d="M497.308,247.923,512.4,274.714l27.462-4.862-2.616-16.709Z" transform="translate(-260.917 -130.075)" fill="none" stroke="#09c" stroke-linecap="round" stroke-linejoin="round" stroke-width="1"/>
      <path id="패스_9257" data-name="패스 9257" d="M559.983,265.684l2.781,14.482-27.108,5.556,37.325,2.5Z" transform="translate(-281.037 -139.394)" fill="#fff"/>
      <path id="패스_9258" data-name="패스 9258" d="M559.983,265.684l2.781,14.482-27.108,5.556,37.325,2.5Z" transform="translate(-281.037 -139.394)" fill="none" stroke="#09c" stroke-linecap="round" stroke-linejoin="round" stroke-width="1"/>
      <line id="선_9913" data-name="선 9913" x1="42.555" y1="21.929" transform="translate(236.391 117.848)" fill="#fff"/>
      <line id="선_9914" data-name="선 9914" x1="42.555" y1="21.929" transform="translate(236.391 117.848)" fill="none" stroke="#09c" stroke-linecap="round" stroke-linejoin="round" stroke-width="1"/>
      <line id="선_9915" data-name="선 9915" x2="10.216" y2="8.053" transform="translate(281.727 140.773)" fill="#fff"/>
      <line id="선_9916" data-name="선 9916" x2="10.216" y2="8.053" transform="translate(281.727 140.773)" fill="none" stroke="#09c" stroke-linecap="round" stroke-linejoin="round" stroke-width="1"/>
      <path id="패스_9259" data-name="패스 9259" d="M435.254,215.257c0-18.006,26.631-32.605,59.479-32.605s59.481,14.6,59.481,32.605V227.75c0,18.007-26.63,32.607-59.481,32.607s-59.479-14.6-59.479-32.607Z" transform="translate(-228.36 -95.83)" fill="#fff"/>
      <path id="패스_9260" data-name="패스 9260" d="M435.254,215.257c0-18.006,26.631-32.605,59.479-32.605s59.481,14.6,59.481,32.605V227.75c0,18.007-26.63,32.607-59.481,32.607s-59.479-14.6-59.479-32.607Z" transform="translate(-228.36 -95.83)" fill="none" stroke="#09c" stroke-linecap="round" stroke-linejoin="round" stroke-width="1"/>
      <path id="패스_9261" data-name="패스 9261" d="M435.254,215.257c0-18.006,26.631-32.605,59.479-32.605s59.481,14.6,59.481,32.605V227.75c0,18.007-26.63,32.607-59.481,32.607s-59.479-14.6-59.479-32.607Z" transform="translate(-228.36 -95.83)" fill="#fff"/>
    </g>
  </g>
  <g id="그룹_6625" data-name="그룹 6625" transform="translate(206.894 86.822)">
    <g id="그룹_6624" data-name="그룹 6624" clip-path="url(#clip-path-6)">
      <rect id="사각형_6691" data-name="사각형 6691" width="2.443" height="28.65" transform="translate(2.942 35.655)" fill="#fff"/>
      <rect id="사각형_6692" data-name="사각형 6692" width="2.443" height="28.65" transform="translate(2.942 35.655)" fill="none" stroke="#09c" stroke-linecap="round" stroke-linejoin="round" stroke-width="1"/>
      <rect id="사각형_6693" data-name="사각형 6693" width="2.444" height="28.649" transform="translate(9.154 42.513)" fill="#fff"/>
      <rect id="사각형_6694" data-name="사각형 6694" width="2.444" height="28.649" transform="translate(9.154 42.513)" fill="none" stroke="#09c" stroke-linecap="round" stroke-linejoin="round" stroke-width="1"/>
      <rect id="사각형_6695" data-name="사각형 6695" width="2.443" height="28.649" transform="translate(15.367 49.373)" fill="#fff"/>
      <rect id="사각형_6696" data-name="사각형 6696" width="2.443" height="28.649" transform="translate(15.367 49.373)" fill="none" stroke="#09c" stroke-linecap="round" stroke-linejoin="round" stroke-width="1"/>
      <rect id="사각형_6697" data-name="사각형 6697" width="2.443" height="28.65" transform="translate(21.58 56.231)" fill="#fff"/>
      <rect id="사각형_6698" data-name="사각형 6698" width="2.443" height="28.65" transform="translate(21.58 56.231)" fill="none" stroke="#09c" stroke-linecap="round" stroke-linejoin="round" stroke-width="1"/>
      <rect id="사각형_6699" data-name="사각형 6699" width="2.444" height="28.65" transform="translate(27.792 58.56)" fill="#fff"/>
      <rect id="사각형_6700" data-name="사각형 6700" width="2.444" height="28.65" transform="translate(27.792 58.56)" fill="none" stroke="#09c" stroke-linecap="round" stroke-linejoin="round" stroke-width="1"/>
      <rect id="사각형_6701" data-name="사각형 6701" width="2.443" height="28.65" transform="translate(34.133 58.56)" fill="#fff"/>
      <rect id="사각형_6702" data-name="사각형 6702" width="2.443" height="28.65" transform="translate(34.133 58.56)" fill="none" stroke="#09c" stroke-linecap="round" stroke-linejoin="round" stroke-width="1"/>
      <rect id="사각형_6703" data-name="사각형 6703" width="2.442" height="28.65" transform="translate(40.475 58.56)" fill="#fff"/>
      <rect id="사각형_6704" data-name="사각형 6704" width="2.442" height="28.65" transform="translate(40.475 58.56)" fill="none" stroke="#09c" stroke-linecap="round" stroke-linejoin="round" stroke-width="1"/>
      <rect id="사각형_6705" data-name="사각형 6705" width="2.444" height="28.65" transform="translate(46.814 58.56)" fill="#fff"/>
      <rect id="사각형_6706" data-name="사각형 6706" width="2.444" height="28.65" transform="translate(46.814 58.56)" fill="none" stroke="#09c" stroke-linecap="round" stroke-linejoin="round" stroke-width="1"/>
      <rect id="사각형_6707" data-name="사각형 6707" width="2.444" height="28.65" transform="translate(53.155 58.56)" fill="#fff"/>
      <rect id="사각형_6708" data-name="사각형 6708" width="2.444" height="28.65" transform="translate(53.155 58.56)" fill="none" stroke="#09c" stroke-linecap="round" stroke-linejoin="round" stroke-width="1"/>
      <rect id="사각형_6709" data-name="사각형 6709" width="2.442" height="28.65" transform="translate(59.497 58.56)" fill="#fff"/>
      <rect id="사각형_6710" data-name="사각형 6710" width="2.442" height="28.65" transform="translate(59.497 58.56)" fill="none" stroke="#09c" stroke-linecap="round" stroke-linejoin="round" stroke-width="1"/>
      <rect id="사각형_6711" data-name="사각형 6711" width="2.443" height="28.65" transform="translate(65.838 58.56)" fill="#fff"/>
      <rect id="사각형_6712" data-name="사각형 6712" width="2.443" height="28.65" transform="translate(65.838 58.56)" fill="none" stroke="#09c" stroke-linecap="round" stroke-linejoin="round" stroke-width="1"/>
      <rect id="사각형_6713" data-name="사각형 6713" width="2.443" height="28.65" transform="translate(72.179 58.56)" fill="#fff"/>
      <rect id="사각형_6714" data-name="사각형 6714" width="2.443" height="28.65" transform="translate(72.179 58.56)" fill="none" stroke="#09c" stroke-linecap="round" stroke-linejoin="round" stroke-width="1"/>
      <rect id="사각형_6715" data-name="사각형 6715" width="2.443" height="28.65" transform="translate(78.52 58.56)" fill="#fff"/>
      <rect id="사각형_6716" data-name="사각형 6716" width="2.443" height="28.65" transform="translate(78.52 58.56)" fill="none" stroke="#09c" stroke-linecap="round" stroke-linejoin="round" stroke-width="1"/>
      <rect id="사각형_6717" data-name="사각형 6717" width="2.443" height="28.65" transform="translate(84.861 58.56)" fill="#fff"/>
      <rect id="사각형_6718" data-name="사각형 6718" width="2.443" height="28.65" transform="translate(84.861 58.56)" fill="none" stroke="#09c" stroke-linecap="round" stroke-linejoin="round" stroke-width="1"/>
      <rect id="사각형_6719" data-name="사각형 6719" width="2.443" height="28.65" transform="translate(91.202 58.56)" fill="#fff"/>
      <rect id="사각형_6720" data-name="사각형 6720" width="2.443" height="28.65" transform="translate(91.202 58.56)" fill="none" stroke="#09c" stroke-linecap="round" stroke-linejoin="round" stroke-width="1"/>
      <rect id="사각형_6721" data-name="사각형 6721" width="2.444" height="28.65" transform="translate(97.542 54.549)" fill="#fff"/>
      <rect id="사각형_6722" data-name="사각형 6722" width="2.444" height="28.65" transform="translate(97.542 54.549)" fill="none" stroke="#09c" stroke-linecap="round" stroke-linejoin="round" stroke-width="1"/>
      <rect id="사각형_6723" data-name="사각형 6723" width="2.443" height="28.651" transform="translate(103.108 49.113)" fill="#fff"/>
      <rect id="사각형_6724" data-name="사각형 6724" width="2.443" height="28.651" transform="translate(103.108 49.113)" fill="none" stroke="#09c" stroke-linecap="round" stroke-linejoin="round" stroke-width="1"/>
      <rect id="사각형_6725" data-name="사각형 6725" width="2.443" height="28.649" transform="translate(108.673 43.678)" fill="#fff"/>
      <rect id="사각형_6726" data-name="사각형 6726" width="2.443" height="28.649" transform="translate(108.673 43.678)" fill="none" stroke="#09c" stroke-linecap="round" stroke-linejoin="round" stroke-width="1"/>
      <rect id="사각형_6727" data-name="사각형 6727" width="2.443" height="28.651" transform="translate(114.238 38.241)" fill="#fff"/>
      <rect id="사각형_6728" data-name="사각형 6728" width="2.443" height="28.651" transform="translate(114.238 38.241)" fill="none" stroke="#09c" stroke-linecap="round" stroke-linejoin="round" stroke-width="1"/>
    </g>
  </g>
  <g id="그룹_6627" data-name="그룹 6627">
    <g id="그룹_6626" data-name="그룹 6626" clip-path="url(#clip-path)">
      <path id="패스_9263" data-name="패스 9263" d="M435.254,215.257c0-18.006,26.631-32.605,59.479-32.605s59.481,14.6,59.481,32.605V227.75c0,18.007-26.63,32.607-59.481,32.607s-59.479-14.6-59.479-32.607Z" transform="translate(-228.36 -95.83)" fill="none" stroke="#09c" stroke-linecap="round" stroke-linejoin="round" stroke-width="1"/>
      <path id="패스_9264" data-name="패스 9264" d="M554.215,214.61c0,18.89-26.63,34.2-59.481,34.2s-59.479-15.314-59.479-34.2,26.631-34.2,59.479-34.2,59.481,15.314,59.481,34.2" transform="translate(-228.36 -94.653)" fill="#fff"/>
      <path id="패스_9265" data-name="패스 9265" d="M554.215,214.61c0,18.89-26.63,34.2-59.481,34.2s-59.479-15.314-59.479-34.2,26.631-34.2,59.479-34.2S554.215,195.722,554.215,214.61Z" transform="translate(-228.36 -94.653)" fill="none" stroke="#09c" stroke-linecap="round" stroke-linejoin="round" stroke-width="1"/>
      <path id="패스_9266" data-name="패스 9266" d="M555.18,217.722c0,15.166-22.458,27.465-50.161,27.465s-50.16-12.3-50.16-27.465,22.457-27.465,50.16-27.465,50.161,12.3,50.161,27.465" transform="translate(-238.646 -99.82)" fill="#fff"/>
      <path id="패스_9267" data-name="패스 9267" d="M555.18,217.722c0,15.166-22.458,27.465-50.161,27.465s-50.16-12.3-50.16-27.465,22.457-27.465,50.16-27.465S555.18,202.555,555.18,217.722Z" transform="translate(-238.646 -99.82)" fill="none" stroke="#09c" stroke-linecap="round" stroke-linejoin="round" stroke-width="1"/>
      <path id="패스_9268" data-name="패스 9268" d="M505.019,193.122c26.827,0,48.733,11.53,50.094,26.032.045-.473.068-.952.068-1.431,0-15.168-22.458-27.465-50.161-27.465s-50.16,12.3-50.16,27.465c0,.479.023.958.068,1.431,1.362-14.5,23.268-26.032,50.092-26.032" transform="translate(-238.646 -99.821)" fill="#fff"/>
      <path id="패스_9269" data-name="패스 9269" d="M505.019,193.122c26.827,0,48.733,11.53,50.094,26.032.045-.473.068-.952.068-1.431,0-15.168-22.458-27.465-50.161-27.465s-50.16,12.3-50.16,27.465c0,.479.023.958.068,1.431C456.288,204.652,478.194,193.122,505.019,193.122Z" transform="translate(-238.646 -99.821)" fill="none" stroke="#09c" stroke-linecap="round" stroke-linejoin="round" stroke-width="1"/>
      <path id="패스_9270" data-name="패스 9270" d="M506.526,218.3l15.094,26.791,27.462-4.862-2.616-16.709Z" transform="translate(-265.753 -114.531)" fill="#fff"/>
      <path id="패스_9271" data-name="패스 9271" d="M506.526,218.3l15.094,26.791,27.462-4.862-2.616-16.709Z" transform="translate(-265.753 -114.531)" fill="none" stroke="#09c" stroke-linecap="round" stroke-linejoin="round" stroke-width="1"/>
      <path id="패스_9272" data-name="패스 9272" d="M569.2,236.056l2.781,14.482-27.108,5.556,37.325,2.5Z" transform="translate(-285.873 -123.849)" fill="#fff"/>
      <path id="패스_9273" data-name="패스 9273" d="M569.2,236.056l2.781,14.482-27.108,5.556,37.325,2.5Z" transform="translate(-285.873 -123.849)" fill="none" stroke="#09c" stroke-linecap="round" stroke-linejoin="round" stroke-width="1"/>
      <path id="패스_9274" data-name="패스 9274" d="M538.279,265.964v-3.013l27.462-4.862V261.1Z" transform="translate(-282.413 -135.409)" fill="#fff"/>
      <path id="패스_9275" data-name="패스 9275" d="M538.279,265.964v-3.013l27.462-4.862V261.1Z" transform="translate(-282.413 -135.409)" fill="none" stroke="#09c" stroke-linecap="round" stroke-linejoin="round" stroke-width="1"/>
      <path id="패스_9276" data-name="패스 9276" d="M544.873,271.872v3.013l37.325,2.5v-3.013Z" transform="translate(-285.873 -142.64)" fill="#fff"/>
      <path id="패스_9277" data-name="패스 9277" d="M544.873,271.872v3.013l37.325,2.5v-3.013Z" transform="translate(-285.873 -142.64)" fill="none" stroke="#09c" stroke-linecap="round" stroke-linejoin="round" stroke-width="1"/>
      <path id="패스_9278" data-name="패스 9278" d="M506.526,211.956v3.013l15.094,26.791v-3.013Z" transform="translate(-265.753 -111.205)" fill="#fff"/>
      <path id="패스_9279" data-name="패스 9279" d="M506.526,211.956v3.013l15.094,26.791v-3.013Z" transform="translate(-265.753 -111.205)" fill="none" stroke="#09c" stroke-linecap="round" stroke-linejoin="round" stroke-width="1"/>
      <path id="패스_9280" data-name="패스 9280" d="M596.052,229.717v3.013l2.276,13.264.5-1.8Z" transform="translate(-312.724 -120.523)" fill="#fff"/>
      <path id="패스_9281" data-name="패스 9281" d="M596.052,229.717v3.013l2.276,13.264.5-1.8Z" transform="translate(-312.724 -120.523)" fill="none" stroke="#09c" stroke-linecap="round" stroke-linejoin="round" stroke-width="1"/>
      <path id="패스_9282" data-name="패스 9282" d="M506.526,211.956l15.094,26.791,27.462-4.862-2.616-16.709Z" transform="translate(-265.753 -111.205)" fill="#fff"/>
      <path id="패스_9283" data-name="패스 9283" d="M506.526,211.956l15.094,26.791,27.462-4.862-2.616-16.709Z" transform="translate(-265.753 -111.205)" fill="none" stroke="#09c" stroke-linecap="round" stroke-linejoin="round" stroke-width="1"/>
      <path id="패스_9284" data-name="패스 9284" d="M569.2,229.717l2.781,14.482-27.108,5.556,37.325,2.5Z" transform="translate(-285.873 -120.523)" fill="#fff"/>
      <path id="패스_9285" data-name="패스 9285" d="M569.2,229.717l2.781,14.482-27.108,5.556,37.325,2.5Z" transform="translate(-285.873 -120.523)" fill="none" stroke="#09c" stroke-linecap="round" stroke-linejoin="round" stroke-width="1"/>
      <line id="선_9917" data-name="선 9917" x1="42.555" y1="21.929" transform="translate(240.773 100.751)" fill="#fff"/>
      <line id="선_9918" data-name="선 9918" x1="42.555" y1="21.929" transform="translate(240.773 100.751)" fill="none" stroke="#09c" stroke-linecap="round" stroke-linejoin="round" stroke-width="1"/>
      <line id="선_9919" data-name="선 9919" x2="10.216" y2="8.053" transform="translate(286.109 123.676)" fill="#fff"/>
      <line id="선_9920" data-name="선 9920" x2="10.216" y2="8.053" transform="translate(286.109 123.676)" fill="none" stroke="#09c" stroke-linecap="round" stroke-linejoin="round" stroke-width="1"/>
    </g>
  </g>
</svg>
