<svg id="그룹_6452" data-name="그룹 6452" xmlns="http://www.w3.org/2000/svg" xmlns:xlink="http://www.w3.org/1999/xlink" width="205.037" height="113.041" viewBox="0 0 205.037 113.041">
  <defs>
    <clipPath id="clip-path">
      <rect id="사각형_4658" data-name="사각형 4658" width="205.037" height="113.041" fill="none"/>
    </clipPath>
  </defs>
  <path id="패스_5769" data-name="패스 5769" d="M11.651,19.688l172.963,96.047,12.5-6.532L26.13,12.543Z" transform="translate(-2.853 -3.072)" fill="#09c"/>
  <g id="그룹_6447" data-name="그룹 6447">
    <g id="그룹_6446" data-name="그룹 6446" clip-path="url(#clip-path)">
      <path id="패스_5770" data-name="패스 5770" d="M197.118,109.2l-12.5,6.532L11.651,19.688,26.13,12.543Z" transform="translate(-2.853 -3.072)" fill="none" stroke="#09c" stroke-linecap="round" stroke-linejoin="round" stroke-width="1"/>
    </g>
  </g>
  <path id="패스_5771" data-name="패스 5771" d="M.5,11.825l8.42,4.913L23.4,9.593V.5Z" transform="translate(-0.123 -0.122)" fill="#fff"/>
  <g id="그룹_6449" data-name="그룹 6449">
    <g id="그룹_6448" data-name="그룹 6448" clip-path="url(#clip-path)">
      <path id="패스_5772" data-name="패스 5772" d="M.5,11.826l8.42,4.913L23.4,9.594V.5Z" transform="translate(-0.122 -0.122)" fill="none" stroke="#09c" stroke-linecap="round" stroke-linejoin="round" stroke-width="1"/>
    </g>
  </g>
  <path id="패스_5773" data-name="패스 5773" d="M30.826,9.594l170.988,96.661,10.4-4.934L30.826.5Z" transform="translate(-7.549 -0.122)" fill="#7bc9db"/>
  <g id="그룹_6451" data-name="그룹 6451">
    <g id="그룹_6450" data-name="그룹 6450" clip-path="url(#clip-path)">
      <path id="패스_5774" data-name="패스 5774" d="M212.209,101.321l-10.4,4.933L30.826,9.594V.5Z" transform="translate(-7.549 -0.122)" fill="none" stroke="#09c" stroke-linecap="round" stroke-linejoin="round" stroke-width="1"/>
    </g>
  </g>
</svg>
