<svg id="그룹_6500" data-name="그룹 6500" xmlns="http://www.w3.org/2000/svg" xmlns:xlink="http://www.w3.org/1999/xlink" width="160.971" height="136.835" viewBox="0 0 160.971 136.835">
  <defs>
    <clipPath id="clip-path">
      <rect id="사각형_4755" data-name="사각형 4755" width="160.971" height="136.835" fill="none"/>
    </clipPath>
    <clipPath id="clip-path-3">
      <rect id="사각형_4753" data-name="사각형 4753" width="92.81" height="25.677" fill="none"/>
    </clipPath>
  </defs>
  <g id="그룹_6499" data-name="그룹 6499" clip-path="url(#clip-path)">
    <g id="그룹_6498" data-name="그룹 6498">
      <g id="그룹_6497" data-name="그룹 6497" clip-path="url(#clip-path)">
        <path id="패스_5833" data-name="패스 5833" d="M157.943,33.5l27.5,6.3a14.8,14.8,0,0,0-.931-9.172c-1.864-4.168-4.126-7.429-8.922-8.472A14.835,14.835,0,0,0,157.943,33.5" transform="translate(-25.234 -3.485)" fill="#fff"/>
        <path id="패스_5834" data-name="패스 5834" d="M157.943,33.5l27.5,6.3a14.8,14.8,0,0,0-.931-9.172c-1.864-4.168-4.126-7.429-8.922-8.472A14.835,14.835,0,0,0,157.943,33.5Z" transform="translate(-25.234 -3.485)" fill="none" stroke="#09c" stroke-linecap="round" stroke-linejoin="round" stroke-width="1"/>
        <path id="패스_5835" data-name="패스 5835" d="M.842,119.64a14.833,14.833,0,0,0,11.336,17.635l82.38,17.913a14.832,14.832,0,0,1-11.336-17.636Z" transform="translate(-0.08 -19.114)" fill="#fff"/>
        <path id="패스_5836" data-name="패스 5836" d="M.842,119.64a14.833,14.833,0,0,0,11.336,17.635l82.38,17.913a14.832,14.832,0,0,1-11.336-17.636Z" transform="translate(-0.08 -19.114)" fill="none" stroke="#09c" stroke-linecap="round" stroke-linejoin="round" stroke-width="1"/>
        <path id="패스_5837" data-name="패스 5837" d="M38.542,92.411,55.987,12.18A14.828,14.828,0,0,1,73.626.841h0v0l82.38,17.913a14.836,14.836,0,0,0-17.645,11.34h0L120.92,110.327h0l-3.151,14.49a14.824,14.824,0,1,1-28.97-6.3L35.387,106.9,38.538,92.41Z" transform="translate(-5.654 -0.08)" fill="#fff"/>
        <path id="패스_5838" data-name="패스 5838" d="M38.542,92.411,55.987,12.18A14.828,14.828,0,0,1,73.626.841h0v0l82.38,17.913a14.836,14.836,0,0,0-17.645,11.34h0L120.92,110.327h0l-3.151,14.49a14.824,14.824,0,1,1-28.97-6.3L35.387,106.9,38.538,92.41Z" transform="translate(-5.654 -0.08)" fill="none" stroke="#09c" stroke-linecap="round" stroke-linejoin="round" stroke-width="1"/>
        <g id="그룹_6496" data-name="그룹 6496" transform="translate(2.088 110.817)" style="mix-blend-mode: darken;isolation: isolate">
          <g id="그룹_6495" data-name="그룹 6495">
            <g id="그룹_6494" data-name="그룹 6494" clip-path="url(#clip-path-3)">
              <path id="패스_5839" data-name="패스 5839" d="M2.986,132.387a14.721,14.721,0,0,0,9.589,6.924l82.38,17.912a14.723,14.723,0,0,1-9.589-6.924Z" transform="translate(-2.565 -131.967)" fill="#fff"/>
              <path id="패스_5840" data-name="패스 5840" d="M2.986,132.387a14.721,14.721,0,0,0,9.589,6.924l82.38,17.912a14.723,14.723,0,0,1-9.589-6.924Z" transform="translate(-2.565 -131.967)" fill="none" stroke="#09c" stroke-linecap="round" stroke-linejoin="round" stroke-width="1"/>
            </g>
          </g>
        </g>
        <path id="패스_5841" data-name="패스 5841" d="M116.018,74.874c-3.478,14.56-17.587,23.667-31.515,20.34S62.1,77.389,65.582,62.828,83.169,39.162,97.1,42.488s22.4,17.827,18.922,32.386" transform="translate(-10.353 -6.679)" fill="#7bc9db"/>
        <path id="패스_5842" data-name="패스 5842" d="M116.018,74.874c-3.478,14.56-17.587,23.667-31.515,20.34S62.1,77.389,65.582,62.828,83.169,39.162,97.1,42.488,119.5,60.315,116.018,74.874Z" transform="translate(-10.353 -6.679)" fill="none" stroke="#09c" stroke-linecap="round" stroke-linejoin="round" stroke-width="1"/>
        <path id="패스_5843" data-name="패스 5843" d="M112.273,74.712c-2.835,11.87-14.338,19.293-25.692,16.582S68.32,76.761,71.155,64.891,85.493,45.6,96.847,48.309s18.261,14.533,15.426,26.4" transform="translate(-11.266 -7.629)" fill="#fff"/>
        <path id="패스_5844" data-name="패스 5844" d="M112.273,74.712c-2.835,11.87-14.338,19.293-25.692,16.582S68.32,76.761,71.155,64.891,85.493,45.6,96.847,48.309,115.108,62.842,112.273,74.712Z" transform="translate(-11.266 -7.629)" fill="none" stroke="#09c" stroke-linecap="round" stroke-linejoin="round" stroke-width="1"/>
      </g>
    </g>
  </g>
</svg>
